<svg width="52" height="52" viewBox="0 0 52 52" fill="none" xmlns="http://www.w3.org/2000/svg">
<circle cx="26" cy="26" r="26" fill="#ACACAC" fill-opacity="0.1"/>
<g clip-path="url(#clip0_1_626)">
<path fill-rule="evenodd" clip-rule="evenodd" d="M38.3788 23.8063L31.5836 26.9295C31.5389 26.8763 31.4918 26.825 31.4424 26.7759L24.441 19.8822C24.4097 19.8514 24.3775 19.8216 24.3444 19.7926L27.5127 13.1092C27.6387 12.8425 27.8282 12.6097 28.0652 12.4305C28.3021 12.2513 28.5794 12.131 28.8736 12.0799C29.1677 12.0287 29.4701 12.0482 29.755 12.1367C30.0399 12.2251 30.299 12.38 30.5101 12.588L31.6003 13.6632L29.108 16.9126C28.9225 17.1546 28.8423 17.4592 28.885 17.7594C28.9277 18.0597 29.0897 18.3309 29.3355 18.5135C29.5813 18.6961 29.8906 18.7751 30.1956 18.7331C30.5005 18.6911 30.776 18.5315 30.9614 18.2895L33.2568 15.2943L36.2654 18.2566L33.255 20.129C33.1261 20.2092 33.0145 20.3137 32.9266 20.4363C32.8387 20.559 32.7762 20.6975 32.7426 20.844C32.7091 20.9904 32.7052 21.1419 32.7311 21.2899C32.757 21.4378 32.8123 21.5793 32.8938 21.7062C32.9752 21.8331 33.0813 21.943 33.2059 22.0295C33.3304 22.1161 33.4711 22.1776 33.6199 22.2106C33.7686 22.2437 33.9225 22.2475 34.0727 22.222C34.223 22.1965 34.3667 22.142 34.4956 22.0618L37.9461 19.9114L38.9063 20.8568C39.1173 21.0646 39.2743 21.3194 39.364 21.5997C39.4538 21.8799 39.4736 22.1773 39.4219 22.4667C39.3701 22.756 39.2483 23.0289 39.0667 23.2621C38.8852 23.4953 38.6492 23.6819 38.3788 23.8063ZM29.7988 28.3924L22.7974 21.4986L16.082 28.1108C15.6128 28.5613 15.2392 29.0991 14.9827 29.693C14.7262 30.2868 14.5921 30.9249 14.588 31.5702C14.5839 32.2155 14.71 32.8552 14.9589 33.4521C15.2078 34.0491 15.5746 34.5914 16.038 35.0477C16.5015 35.504 17.0523 35.8652 17.6586 36.1103C18.2649 36.3554 18.9145 36.4795 19.5699 36.4755C20.2253 36.4715 20.8733 36.3394 21.4765 36.0869C22.0796 35.8343 22.6258 35.4664 23.0834 35.0045L29.8007 28.3924H29.7988Z" fill="white"/>
<path fill-rule="evenodd" clip-rule="evenodd" d="M29.7988 28.3925L22.7974 21.4988L16.082 28.1109C15.6128 28.5615 15.2392 29.0993 14.9827 29.6931C14.7262 30.287 14.5921 30.925 14.588 31.5703C14.5839 32.2156 14.71 32.8553 14.9589 33.4523C15.2078 34.0492 15.5746 34.5916 16.038 35.0479C16.5015 35.5042 17.0523 35.8653 17.6586 36.1104C18.2649 36.3555 18.9145 36.4796 19.5699 36.4756C20.2253 36.4716 20.8733 36.3395 21.4765 36.087C22.0796 35.8345 22.6258 35.4666 23.0834 35.0046L29.8007 28.3925H29.7988Z" fill="#6CA8EE"/>
</g>
<defs>
<clipPath id="clip0_1_626">
<rect width="26" height="25.6" fill="white" transform="translate(14 11.2)"/>
</clipPath>
</defs>
</svg>
