<svg width="45" height="42" viewBox="0 0 45 42" fill="none" xmlns="http://www.w3.org/2000/svg">
<path d="M6.5655 0.589428C6.03112 1.3113 3.49987 5.7363 3.49987 5.95193C3.49987 6.0738 3.5655 6.24255 3.63112 6.31755C3.70612 6.39255 4.9905 7.28318 6.48112 8.2863L9.19987 10.1238L9.2655 10.7426C9.36862 11.7269 9.31237 11.6988 11.7967 12.0176C12.9874 12.1676 13.9999 12.3082 14.0467 12.3269C14.1686 12.3644 16.0061 16.2176 15.9405 16.2832C15.9124 16.3113 12.6874 17.4269 8.778 18.7582C4.86862 20.0894 1.55925 21.2238 1.40925 21.2801C1.26862 21.3363 1.10925 21.4863 1.06237 21.6269C0.996746 21.7863 0.977996 24.4019 0.987371 28.9863C1.0155 35.1551 1.03425 36.1113 1.15612 36.2332C1.24987 36.3269 6.12487 37.2269 16.4467 39.0551C24.7717 40.5269 31.7186 41.7269 31.8686 41.7269C32.1874 41.7269 44.4874 35.8301 44.7967 35.5301C44.9842 35.3519 44.9842 35.2207 44.9842 27.5894V19.8363L40.8874 11.3051C38.6374 6.60818 36.7155 2.72692 36.6217 2.6613C36.4624 2.55817 8.3655 0.289429 7.23112 0.289429C6.84675 0.289429 6.76237 0.326927 6.5655 0.589428ZM19.3905 2.45505C25.3717 2.91442 31.4093 3.39255 32.8061 3.50505L35.3374 3.7113L34.1561 6.3363C33.4999 7.78005 32.9093 8.97068 32.8343 8.98943C32.7593 8.9988 30.1717 9.36443 27.078 9.79568L21.453 10.5738L20.1405 11.1082C19.428 11.3988 18.7249 11.6332 18.5936 11.6332C18.1905 11.6332 10.6436 10.6207 10.5405 10.5551C10.4842 10.5269 10.4374 10.3863 10.4374 10.2457C10.4374 10.1051 10.3905 9.84255 10.3436 9.65505C10.2592 9.35505 10.0155 9.16755 7.62487 7.54568C6.18112 6.57068 4.99987 5.74568 4.99987 5.71755C4.99987 5.68005 5.31862 5.10818 5.71237 4.45193C6.10612 3.7863 6.65925 2.8488 6.9405 2.37068L7.45612 1.48943L7.9905 1.54568C8.28112 1.5738 13.4092 1.9863 19.3905 2.45505ZM39.828 12.0363C41.7217 15.9926 43.2593 19.2551 43.2311 19.2738C43.2124 19.2926 37.3717 18.5894 30.2467 17.6988L17.2999 16.0863L16.878 15.1957C16.653 14.7082 16.2686 13.9019 16.0342 13.4051C15.6405 12.5707 15.6311 12.5051 15.8186 12.5426C15.9217 12.5519 16.6624 12.6551 17.4592 12.7582L18.8936 12.9551L20.4592 12.3457L22.0155 11.7269L27.8186 10.9301C32.1311 10.3394 33.6592 10.1051 33.7811 9.99255C33.8749 9.90818 34.4655 8.68943 35.103 7.2738C35.7405 5.85818 36.2936 4.73318 36.3311 4.77068C36.3593 4.80817 37.9342 8.08005 39.828 12.0363ZM29.778 18.8894C36.5186 19.7332 42.0499 20.4363 42.0686 20.4551C42.0874 20.4738 39.7811 21.6176 36.9311 22.9863L31.7655 25.4801L18.6499 23.6332C11.4311 22.6113 5.253 21.7394 4.9155 21.6926L4.29675 21.6176L7.29675 20.5863C8.94675 20.0238 11.7967 19.0488 13.6249 18.4301C15.8749 17.6519 17.0467 17.2957 17.2342 17.3238C17.3936 17.3426 23.028 18.0457 29.778 18.8894ZM43.7186 27.9176V34.7426L38.1874 37.4144C35.1405 38.8863 32.6093 40.1051 32.5624 40.1144C32.4968 40.1426 32.478 37.7426 32.4874 33.3363L32.5155 26.5207L38.0936 23.8207C41.1593 22.3301 43.6811 21.1113 43.6999 21.1113C43.7093 21.1019 43.7186 24.1676 43.7186 27.9176ZM16.803 24.6176C24.6686 25.7238 31.1374 26.6332 31.1749 26.6332C31.2124 26.6332 31.2499 29.7363 31.2499 33.5238V40.4051L30.9967 40.3582C30.8468 40.3301 24.3405 39.1769 16.5311 37.7988L2.328 35.2957L2.29987 28.9488C2.28112 23.9051 2.29987 22.6019 2.39362 22.6019C2.45925 22.6019 8.94675 23.5113 16.803 24.6176Z" fill="#4C89E4"/>
</svg>
