<svg width="44" height="44" viewBox="0 0 44 44" fill="none" xmlns="http://www.w3.org/2000/svg">
<path d="M15.5833 33.9167H28.4167M15.5833 33.9167V40.3333H28.4167V33.9167M15.5833 33.9167C15.5833 33.9167 12.8333 27.5 11.9167 19.25C11 11 11 3.66667 11 3.66667H33C33 3.66667 33 11 32.0833 19.25C31.1667 27.5 28.4167 33.9167 28.4167 33.9167" stroke="white" stroke-width="1.5" stroke-linecap="round" stroke-linejoin="round"/>
<path d="M11.917 9.16667H32.0837M18.9231 20.0649C20.2348 18.3416 21.2468 15.9592 21.7932 14.6667C22.7502 15.9592 24.8273 19.2023 25.4837 20.9266C26.3032 23.0808 24.2535 25.6667 21.7932 25.6667C19.3328 25.6667 17.2832 22.22 18.9231 20.0649Z" stroke="white" stroke-width="1.5" stroke-linecap="round" stroke-linejoin="round"/>
</svg>
