<svg width="39" height="39" viewBox="0 0 39 39" fill="none" xmlns="http://www.w3.org/2000/svg">
<path d="M11.7 19.5294C13.7687 19.5294 15.7527 18.7113 17.2154 17.2552C18.6782 15.799 19.5 13.824 19.5 11.7647C19.5 9.70538 18.6782 7.73039 17.2154 6.27423C15.7527 4.81806 13.7687 4 11.7 4C9.63131 4 7.64735 4.81806 6.18457 6.27423C4.72178 7.73039 3.9 9.70538 3.9 11.7647C3.9 13.824 4.72178 15.799 6.18457 17.2552C7.64735 18.7113 9.63131 19.5294 11.7 19.5294ZM29.25 19.5294C30.8015 19.5294 32.2895 18.9159 33.3866 17.8237C34.4837 16.7316 35.1 15.2504 35.1 13.7059C35.1 12.1614 34.4837 10.6801 33.3866 9.58803C32.2895 8.4959 30.8015 7.88235 29.25 7.88235C27.6985 7.88235 26.2105 8.4959 25.1134 9.58803C24.0163 10.6801 23.4 12.1614 23.4 13.7059C23.4 15.2504 24.0163 16.7316 25.1134 17.8237C26.2105 18.9159 27.6985 19.5294 29.25 19.5294ZM4.3875 23.4118C3.22386 23.4118 2.10788 23.8719 1.28507 24.691C0.462253 25.5101 0 26.621 0 27.7794V28.2647C0 28.2647 0 37 11.7 37C23.4 37 23.4 28.2647 23.4 28.2647V27.7794C23.4 26.621 22.9377 25.5101 22.1149 24.691C21.2921 23.8719 20.1761 23.4118 19.0125 23.4118H4.3875ZM29.25 34.0882C26.9666 34.0882 25.2174 33.7369 23.8778 33.1992C24.6574 31.8893 25.1467 30.4286 25.313 28.915C25.3319 28.7311 25.3443 28.5466 25.35 28.3618V27.7794C25.3525 26.1532 24.7221 24.5892 23.5911 23.4156C23.6574 23.4129 23.7237 23.4116 23.79 23.4118H34.71C35.8478 23.4118 36.939 23.8617 37.7435 24.6626C38.548 25.4635 39 26.5497 39 27.6824C39 27.6824 39 34.0882 29.25 34.0882Z" fill="#6CA8EE"/>
</svg>
