<svg width="30" height="29" viewBox="0 0 30 29" fill="none" xmlns="http://www.w3.org/2000/svg">
<path d="M19.5143 5.0459H10.8863C8.1023 5.0459 5.8459 7.3027 5.8459 10.0863V18.7143C5.8459 21.4983 8.1027 23.7547 10.8867 23.7547H19.5139C22.2979 23.7547 24.5547 21.4979 24.5547 18.7139V10.0863C24.5547 7.3023 22.2983 5.0459 19.5143 5.0459Z" fill="#6293DD" stroke="#6293DD" stroke-width="1.4" stroke-miterlimit="10"/>
<path d="M15.1998 18.7527C17.6939 18.7527 19.7158 16.7308 19.7158 14.2367C19.7158 11.7426 17.6939 9.7207 15.1998 9.7207C12.7057 9.7207 10.6838 11.7426 10.6838 14.2367C10.6838 16.7308 12.7057 18.7527 15.1998 18.7527Z" fill="#DEE1E8"/>
<path d="M20.6846 9.71914C21.219 9.71914 21.6522 9.28593 21.6522 8.75154C21.6522 8.21715 21.219 7.78394 20.6846 7.78394C20.1502 7.78394 19.717 8.21715 19.717 8.75154C19.717 9.28593 20.1502 9.71914 20.6846 9.71914Z" fill="#DEE1E8"/>
</svg>
