<svg width="28" height="24" viewBox="0 0 28 24" fill="none" xmlns="http://www.w3.org/2000/svg">
<path fill-rule="evenodd" clip-rule="evenodd" d="M1.14258 4.71289V19.5645C1.14258 20.5492 1.53376 21.4936 2.23006 22.1899C2.92636 22.8862 3.87075 23.2773 4.85547 23.2773H23.4199C24.4046 23.2773 25.349 22.8862 26.0453 22.1899C26.7416 21.4936 27.1328 20.5492 27.1328 19.5645V4.71289C27.1328 3.72817 26.7416 2.78378 26.0453 2.08748C25.349 1.39118 24.4046 1 23.4199 1H4.85547C3.87075 1 2.92636 1.39118 2.23006 2.08748C1.53376 2.78378 1.14258 3.72817 1.14258 4.71289Z" fill="white"/>
<path d="M4.85547 6.56934L14.1377 12.1387L23.4199 6.56934" stroke="#4C89E4" stroke-width="1.24204" stroke-linecap="round" stroke-linejoin="round"/>
</svg>
