<svg width="37" height="37" viewBox="0 0 37 37" fill="none" xmlns="http://www.w3.org/2000/svg">
<path d="M24.0428 6.48242H12.9582C9.38151 6.48242 6.48267 9.38178 6.48267 12.9579V24.0425C6.48267 27.6192 9.38203 30.518 12.9587 30.518H24.0422C27.6189 30.518 30.5183 27.6187 30.5183 24.042V12.9579C30.5183 9.38127 27.6194 6.48242 24.0428 6.48242Z" fill="#C1CEDC" stroke="#C1CEDC" stroke-width="1.16667" stroke-miterlimit="10"/>
<path d="M18.5003 24.0919C21.7045 24.0919 24.3021 21.4943 24.3021 18.2901C24.3021 15.0858 21.7045 12.4883 18.5003 12.4883C15.296 12.4883 12.6985 15.0858 12.6985 18.2901C12.6985 21.4943 15.296 24.0919 18.5003 24.0919Z" fill="#E9E6E1"/>
<path d="M25.5451 12.4862C26.2316 12.4862 26.7882 11.9296 26.7882 11.2431C26.7882 10.5566 26.2316 10 25.5451 10C24.8586 10 24.302 10.5566 24.302 11.2431C24.302 11.9296 24.8586 12.4862 25.5451 12.4862Z" fill="#E9E6E1"/>
</svg>
