<svg width="23" height="19" viewBox="0 0 23 19" fill="none" xmlns="http://www.w3.org/2000/svg">
<path fill-rule="evenodd" clip-rule="evenodd" d="M0.500305 3.21512V15.7865C0.500305 16.6201 0.831427 17.4195 1.42083 18.0089C2.01023 18.5983 2.80962 18.9294 3.64316 18.9294H19.3574C20.191 18.9294 20.9904 18.5983 21.5798 18.0089C22.1692 17.4195 22.5003 16.6201 22.5003 15.7865V3.21512C22.5003 2.38158 22.1692 1.58219 21.5798 0.992787C20.9904 0.403387 20.191 0.0722656 19.3574 0.0722656H3.64316C2.80962 0.0722656 2.01023 0.403387 1.42083 0.992787C0.831427 1.58219 0.500305 2.38158 0.500305 3.21512Z" fill="#C1CEDC"/>
<path d="M3.64288 4.78711L11.5 9.50139L19.3572 4.78711" stroke="#E9E6E1" stroke-linecap="round" stroke-linejoin="round"/>
</svg>
