<svg width="26" height="45" viewBox="0 0 26 45" fill="none" xmlns="http://www.w3.org/2000/svg">
<path d="M0 36.3695C0 34.2338 0 32.0981 0 29.9687C0.0184441 29.9687 0.0368882 29.9624 0.0614803 29.9624C1.76448 29.9624 3.46749 29.9624 5.16434 29.9624C5.20123 29.9624 5.23812 29.9687 5.29345 29.9749C5.29345 30.0438 5.29345 30.1127 5.29345 30.1754C5.29345 32.0418 5.29345 33.9144 5.29345 35.7808C5.29345 36.0125 5.30575 36.2505 5.34263 36.4823C5.42256 37.0334 5.58856 37.5532 5.9021 38.0167C6.14803 38.38 6.46772 38.6367 6.87964 38.7808C7.14401 38.8747 7.42067 38.9186 7.70348 38.9374C8.09695 38.9624 8.47813 38.9311 8.85931 38.8246C9.48026 38.6493 9.90447 38.2296 10.1811 37.6472C10.4455 37.0898 10.5746 36.4948 10.5746 35.8747C10.5746 31.9603 10.5746 28.0522 10.5746 24.1378C10.5746 24.0814 10.5746 24.0313 10.5746 23.9624C10.5131 23.9562 10.4639 23.9562 10.4148 23.9562C10.0028 23.9374 9.59092 23.9248 9.179 23.8935C8.38591 23.8309 7.60511 23.6743 6.8366 23.4363C5.16434 22.9165 3.738 22.0084 2.60676 20.643C1.74604 19.6096 1.14968 18.4259 0.743911 17.142C0.338142 15.858 0.135257 14.5365 0.0614803 13.19C0.0491842 13.0084 0.0245921 12.833 0.00614803 12.6576C0.00614803 11.2923 0.00614803 9.93319 0.00614803 8.56785C0.0245921 8.46764 0.0491842 8.3737 0.0614803 8.27349C0.104516 7.63466 0.209033 7.00835 0.362734 6.39457C0.694727 5.07933 1.23575 3.8643 2.07188 2.79958C3.4306 1.08351 5.20123 0.169102 7.35919 0.0250522C7.40837 0.0187891 7.45141 0.00626305 7.50059 0C7.7834 0 8.07236 0 8.35517 0C8.3982 0.00626305 8.44124 0.0187891 8.48428 0.0250522C8.76094 0.0563674 9.04375 0.0751566 9.32041 0.118998C10.3102 0.275574 11.2263 0.632568 12.0686 1.18998C13.1752 1.92276 14.0114 2.89979 14.6323 4.07724C15.4438 5.61795 15.8312 7.27766 15.8496 9.02505C15.8558 9.68894 15.8496 10.3466 15.8496 11.0104C15.8496 13.3779 15.8496 15.739 15.8496 18.1065C15.8496 18.1691 15.8558 18.2317 15.8558 18.3069C15.9357 18.3069 15.9972 18.3069 16.0586 18.3069C19.3109 18.3069 22.5633 18.3069 25.8094 18.3069C25.8709 18.3069 25.9385 18.3069 26 18.3069C26 27.2067 26 36.1065 26 45C24.2478 45 22.4956 45 20.7496 45C20.7434 44.9248 20.7373 44.8497 20.7373 44.7745C20.7373 37.8288 20.7373 30.8768 20.7373 23.9311C20.7373 23.8685 20.7373 23.8121 20.7373 23.7495C20.7373 23.7182 20.7311 23.6931 20.725 23.6618C19.1019 23.6618 17.4788 23.6618 15.8496 23.6618C15.8496 23.7432 15.8496 23.8121 15.8496 23.881C15.8496 27.8518 15.8496 31.8288 15.8496 35.7996C15.8496 36.6764 15.7574 37.5407 15.5545 38.3925C15.2655 39.6138 14.7983 40.7537 14.079 41.7745C13.1014 43.1649 11.8227 44.1357 10.2057 44.618C9.26507 44.8998 8.30598 44.9875 7.32845 44.9186C6.49846 44.8622 5.69307 44.6806 4.92457 44.3549C3.4306 43.7161 2.29321 42.6576 1.45708 41.2547C0.627099 39.858 0.190589 38.3361 0.0553322 36.714C0.0491842 36.595 0.0184441 36.4823 0 36.3695ZM10.5685 17.9687C10.5685 17.8935 10.5685 17.8309 10.5685 17.7745C10.5685 14.8873 10.5685 11.9937 10.5685 9.10647C10.5685 8.91232 10.5623 8.71816 10.5316 8.52401C10.4639 8.0167 10.3164 7.52818 10.0643 7.07724C9.76306 6.54489 9.31426 6.20668 8.7302 6.07516C8.20147 5.95616 7.66659 5.95616 7.13786 6.07516C6.56609 6.20668 6.12343 6.5261 5.82833 7.03967C5.7607 7.15866 5.69307 7.28393 5.63774 7.41545C5.41026 7.94781 5.29345 8.49896 5.29345 9.08142C5.29345 9.90188 5.2873 10.7223 5.29345 11.5428C5.2996 12.0752 5.31189 12.6013 5.34263 13.1336C5.37337 13.7349 5.47174 14.3299 5.63774 14.9061C5.69307 15.1002 5.7607 15.2944 5.83448 15.4885C6.2341 16.5282 6.95956 17.2171 7.98628 17.5929C8.71175 17.8559 9.46181 17.9499 10.2303 17.9812C10.3348 17.9749 10.4393 17.9687 10.5685 17.9687Z" fill="white"/>
</svg>
