<svg width="28" height="28" viewBox="0 0 28 28" fill="none" xmlns="http://www.w3.org/2000/svg">
<path d="M18.1331 5.03711H9.86667C7.19933 5.03711 5.03748 7.19934 5.03748 9.86631V18.1328C5.03748 20.8001 7.19971 22.962 9.86706 22.962H18.1328C20.8001 22.962 22.9623 20.7997 22.9623 18.1324V9.86631C22.9623 7.19896 20.8005 5.03711 18.1331 5.03711Z" fill="white" stroke="white" stroke-width="1.16667" stroke-miterlimit="10"/>
<path d="M13.9997 18.3274C16.3894 18.3274 18.3265 16.3902 18.3265 14.0006C18.3265 11.611 16.3894 9.67383 13.9997 9.67383C11.6101 9.67383 9.67297 11.611 9.67297 14.0006C9.67297 16.3902 11.6101 18.3274 13.9997 18.3274Z" fill="#609CE2"/>
<path d="M19.2535 9.67247C19.7655 9.67247 20.1806 9.25741 20.1806 8.74542C20.1806 8.23342 19.7655 7.81836 19.2535 7.81836C18.7415 7.81836 18.3265 8.23342 18.3265 8.74542C18.3265 9.25741 18.7415 9.67247 19.2535 9.67247Z" fill="#609CE2"/>
</svg>
