<svg width="26" height="26" viewBox="0 0 26 26" fill="none" xmlns="http://www.w3.org/2000/svg">
<path fill-rule="evenodd" clip-rule="evenodd" d="M2.12366 6.78626V19.2165C2.12366 20.0406 2.45106 20.8311 3.03384 21.4138C3.61662 21.9966 4.40704 22.324 5.23121 22.324H20.769C21.5931 22.324 22.3836 21.9966 22.9663 21.4138C23.5491 20.8311 23.8765 20.0406 23.8765 19.2165V6.78626C23.8765 5.96209 23.5491 5.17167 22.9663 4.58889C22.3836 4.00611 21.5931 3.67871 20.769 3.67871H5.23121C4.40704 3.67871 3.61662 4.00611 3.03384 4.58889C2.45106 5.17167 2.12366 5.96209 2.12366 6.78626Z" fill="white"/>
<path d="M5.23096 8.34082L12.9998 13.0021L20.7687 8.34082" stroke="#4C89E4" stroke-linecap="round" stroke-linejoin="round"/>
</svg>
