<svg width="48" height="48" viewBox="0 0 48 48" fill="none" xmlns="http://www.w3.org/2000/svg">
<path d="M45.7969 38.5297C45.4875 38.8297 33.1875 44.7266 32.8687 44.7266C32.7187 44.7266 25.7719 43.5266 17.4469 42.0547M45.7969 38.5297L2.06249 24.6266C1.99687 24.7859 1.97812 27.4016 1.98749 31.9859C2.01562 38.1547 2.03437 39.1109 2.15624 39.2328C2.24999 39.3266 7.12499 40.2266 17.4469 42.0547M45.7969 38.5297C45.9844 38.3516 45.9844 38.2203 45.9844 30.5891V22.8359L45.7969 38.5297ZM17.4469 42.0547L17.4643 41.9562M17.4469 42.0547L17.4643 41.9562M12.8095 14.918C12.8096 14.918 12.8096 14.918 12.8096 14.918L12.7969 15.0172C13.9875 15.1672 15 15.3078 15.0469 15.3266C15.1687 15.3641 17.0062 19.2172 16.9406 19.2828C16.9125 19.3109 13.6875 20.4266 9.77812 21.7578C5.86874 23.0891 2.55937 24.2234 2.40937 24.2797L12.8095 14.918ZM12.8095 14.918C12.7575 14.9113 12.7065 14.9048 12.6567 14.8984C12.1112 14.8285 11.6988 14.7757 11.3842 14.7233C11.0387 14.6657 10.8231 14.6104 10.6833 14.54C10.5518 14.4738 10.4894 14.3954 10.4499 14.2796C10.4098 14.1621 10.394 14.0098 10.371 13.7885C10.3691 13.7701 10.3671 13.7512 10.3651 13.7318L10.3651 13.7316L10.2994 13.1129L10.2945 13.0666L10.256 13.0406L7.53724 11.2031L7.53708 11.203C6.79206 10.7016 6.09866 10.2284 5.58227 9.87127C5.32403 9.69267 5.11028 9.54324 4.95654 9.43389C4.87962 9.37918 4.81808 9.33474 4.77362 9.30182C4.75136 9.28532 4.7338 9.27202 4.72092 9.26193C4.71114 9.25426 4.70581 9.24976 4.70345 9.24775C4.68222 9.22198 4.65614 9.17518 4.63484 9.11738C4.61374 9.06009 4.60115 9.00231 4.60007 8.95774C4.60052 8.95609 4.60124 8.95364 4.60233 8.95029C4.60594 8.93925 4.61192 8.92347 4.62074 8.90247C4.6383 8.86069 4.66476 8.80378 4.69956 8.73293C4.769 8.59154 4.86929 8.39944 4.99191 8.17161C5.23701 7.71619 5.56966 7.1211 5.91922 6.5098C6.61989 5.28451 7.38268 4.00442 7.64574 3.6489C7.74336 3.51875 7.80065 3.46265 7.86916 3.43182C7.94083 3.39956 8.03743 3.38906 8.23124 3.38906C8.50979 3.38906 10.4723 3.53029 13.272 3.74487C16.068 3.95916 19.6912 4.24597 23.2841 4.536C26.877 4.82603 30.4394 5.11928 33.1134 5.34646C34.4505 5.46006 35.5652 5.55712 36.3507 5.62899C36.7434 5.66494 37.0535 5.69455 37.2677 5.71677C37.3749 5.72789 37.4575 5.73709 37.5142 5.74427C37.5306 5.74634 37.5446 5.74821 37.5561 5.74986C37.5589 5.75026 37.5615 5.75065 37.564 5.75103C37.5671 5.75601 37.5707 5.76179 37.5746 5.76842C37.5933 5.79985 37.6191 5.84581 37.6519 5.9062C37.7172 6.02673 37.8084 6.20124 37.9225 6.42427C38.1507 6.87013 38.4698 7.50773 38.8564 8.29038C39.6297 9.85558 40.6724 11.9997 41.7973 14.3479L41.7974 14.348L45.8844 22.8587V30.5891C45.8844 34.4056 45.8844 36.3445 45.861 37.352C45.8492 37.8574 45.8316 38.1219 45.8067 38.2704C45.7943 38.3438 45.7811 38.3824 45.7695 38.4053C45.7591 38.4258 45.7482 38.438 45.728 38.4572L45.7275 38.4576C45.7275 38.4576 45.7246 38.4601 45.7165 38.4657C45.708 38.4717 45.6963 38.4793 45.681 38.4887C45.6504 38.5076 45.6086 38.5318 45.5556 38.5614C45.4497 38.6203 45.3026 38.6985 45.1196 38.7933C44.7539 38.9828 44.2474 39.2375 43.6468 39.5349C42.4457 40.1297 40.8696 40.8947 39.2931 41.6505C37.7166 42.4062 36.1399 43.1525 34.9377 43.7098C34.3365 43.9884 33.8293 44.2196 33.4628 44.3811C33.2794 44.4618 33.1319 44.5248 33.0258 44.5675C32.9726 44.5889 32.9308 44.6047 32.9006 44.615C32.8854 44.6202 32.8744 44.6236 32.8668 44.6256C32.8663 44.6258 32.8657 44.6259 32.8652 44.626C32.8618 44.6256 32.8562 44.625 32.8478 44.6239C32.831 44.6217 32.8074 44.6184 32.7771 44.6138C32.7165 44.6048 32.6306 44.5912 32.5204 44.5734C32.3002 44.5378 31.9843 44.4852 31.5832 44.4175C30.7809 44.282 29.6385 44.086 28.2405 43.844C25.4445 43.3601 21.6267 42.6921 17.4643 41.9562M12.8095 14.918L2.08749 31.9856C2.10156 35.0703 2.11327 36.8504 2.13669 37.8747C2.1484 38.3873 2.163 38.7078 2.18197 38.9071C2.19147 39.007 2.20177 39.0728 2.21227 39.1156C2.21686 39.1343 2.22097 39.1463 2.22391 39.1537C2.23224 39.1564 2.24318 39.1597 2.25707 39.1636C2.29807 39.1751 2.35841 39.1901 2.43912 39.2085C2.60017 39.2454 2.83752 39.2951 3.15303 39.3581C3.78378 39.4841 4.72392 39.6624 5.98416 39.895C8.50449 40.3602 12.3034 41.0422 17.4643 41.9562M33.8144 6.40501L33.8143 6.40501C32.4173 6.2925 26.3797 5.81437 20.3984 5.35499C14.4196 4.88643 9.29525 4.47423 9.00073 4.44582C9.00057 4.44581 9.00041 4.44579 9.00025 4.44578L8.46671 4.38961L8.40253 4.38285L8.36993 4.43856L7.85443 5.31961L33.8144 6.40501ZM33.8144 6.40501L36.3456 6.61127L36.4868 6.62277M33.8144 6.40501L36.4868 6.62277M36.4868 6.62277L36.4287 6.75197M36.4868 6.62277L36.4287 6.75197M36.4287 6.75197L35.2474 9.37698L35.2473 9.37732M36.4287 6.75197L35.2473 9.37732M35.2473 9.37732C34.9188 10.0999 34.6066 10.7596 34.3669 11.2414C34.2471 11.4821 34.1449 11.6795 34.0676 11.8183C34.0291 11.8874 33.9959 11.9437 33.9692 11.9841C33.956 12.004 33.9429 12.0223 33.9305 12.0369C33.9244 12.0441 33.9167 12.0524 33.9078 12.06C33.901 12.0658 33.8838 12.0798 33.8586 12.0861L33.8588 12.0868M35.2473 9.37732L33.8588 12.0868M33.8588 12.0868L33.8468 12.0883M33.8588 12.0868L33.8468 12.0883M33.8468 12.0883C33.8198 12.0917 33.4603 12.1422 32.8646 12.2259C31.8233 12.3722 30.0606 12.6199 28.0919 12.8944L28.0918 12.8944M33.8468 12.0883L28.0918 12.8944M28.0918 12.8944L22.4792 13.6708M28.0918 12.8944L22.4792 13.6708M32.7817 28.5829L32.8091 28.5697L37.9745 26.0761L32.7817 28.5829ZM32.7817 28.5829L32.7517 28.5787M32.7817 28.5829L32.7517 28.5787M32.7517 28.5787L19.6361 26.7318L19.636 26.7318M32.7517 28.5787L19.636 26.7318M19.636 26.7318C12.4235 25.7108 6.25014 24.8396 5.90277 24.7914C5.90246 24.7913 5.90216 24.7913 5.90186 24.7912L5.28484 24.7165L5.26436 24.5226M19.636 26.7318L5.26436 24.5226M5.26436 24.5226L8.26436 23.4914L8.2646 23.4913M5.26436 24.5226L8.2646 23.4913M8.2646 23.4913C8.72173 23.3354 9.27103 23.1479 9.86522 22.9451C11.4153 22.4159 13.271 21.7824 14.5926 21.3351C15.7178 20.9459 16.5745 20.6619 17.1739 20.4786C17.4734 20.387 17.7099 20.3201 17.8841 20.2778C17.9711 20.2567 18.044 20.2414 18.1022 20.2322C18.1561 20.2237 18.2076 20.2187 18.2474 20.2243C18.4348 20.2465 24.0582 20.9483 30.7905 21.7898C34.1609 22.2117 37.2289 22.5984 39.4568 22.882M8.2646 23.4913L39.4568 22.882M44.8187 37.8049V37.7422V30.9172C44.8187 29.0421 44.8164 27.3381 44.8129 26.104C44.8111 25.487 44.8091 24.9873 44.8069 24.6425C44.8058 24.4701 44.8046 24.3362 44.8035 24.2456C44.8029 24.2004 44.8023 24.1656 44.8017 24.1421C44.8014 24.1305 44.8011 24.1208 44.8007 24.1138C44.8006 24.1107 44.8003 24.1062 44.7999 24.1019C44.7998 24.1012 44.7995 24.0984 44.7988 24.0947C44.7985 24.0926 44.798 24.0902 44.7974 24.0876L44.7973 24.0875C44.797 24.0858 44.7937 24.0717 44.7843 24.057C44.7766 24.0466 44.7488 24.0236 44.727 24.0146C44.719 24.0137 44.7097 24.014 44.7 24.0153V24.0109C44.6875 24.0109 44.6777 24.0134 44.6757 24.0139L44.6756 24.0139C44.6721 24.0148 44.6693 24.0157 44.6679 24.0162L44.6608 24.0187L44.6511 24.0228L44.6259 24.0341C44.6052 24.0436 44.5752 24.0576 44.5368 24.0758C44.4598 24.1122 44.3475 24.1657 44.204 24.2345C43.9169 24.3721 43.504 24.5711 42.9959 24.8166C41.9799 25.3076 40.583 25.985 39.0502 26.7303L44.8187 37.8049ZM44.8187 37.8049L44.7622 37.8322L39.231 40.5041C37.7075 41.2401 36.3129 41.9127 35.2933 42.4026C34.7835 42.6476 34.3673 42.8469 34.0756 42.9855C33.9298 43.0548 33.8149 43.1091 33.7349 43.1464C33.695 43.165 33.6634 43.1795 33.6408 43.1896C33.6296 43.1946 33.6202 43.1988 33.6128 43.2019L33.6019 43.2063C33.6012 43.2065 33.5975 43.208 33.5924 43.2095C33.5574 43.2207 33.5232 43.2112 33.4998 43.1939C33.4805 43.1795 33.4709 43.162 33.4674 43.155C33.4593 43.1392 33.4553 43.1225 33.453 43.1123C33.448 43.089 33.444 43.0575 33.4405 43.021C33.4334 42.9465 33.4273 42.8355 33.4218 42.6902C33.411 42.3989 33.4027 41.9627 33.3969 41.3889C33.3852 40.241 33.3828 38.5389 33.3875 36.3357L33.3875 36.3355L33.4156 29.5199L33.4159 29.4575L33.4721 29.4303L39.05 26.7304L44.8187 37.8049ZM32.35 43.5249V43.4047V36.5234C32.35 34.6294 32.3406 32.9064 32.3266 31.6567C32.3195 31.0319 32.3113 30.5251 32.3025 30.1743C32.2981 29.9991 32.2935 29.8621 32.2889 29.7686C32.2865 29.7221 32.2841 29.6849 32.2815 29.6588C32.2803 29.6462 32.2788 29.6334 32.2767 29.6226C32.2757 29.618 32.2738 29.6088 32.27 29.5988C32.2682 29.5944 32.2638 29.5836 32.2549 29.5721C32.248 29.5632 32.2242 29.5358 32.182 29.533L32.35 43.5249ZM32.35 43.5249L32.2318 43.503M32.35 43.5249L32.2318 43.503M32.2318 43.503L31.9787 43.4561L31.9784 43.4561M32.2318 43.503L31.9784 43.4561M31.9784 43.4561C31.8291 43.4281 25.3238 42.2751 17.5139 40.8969M31.9784 43.4561L17.5139 40.8969M22.4792 13.6708L21.1784 14.2004C20.8204 14.3464 20.4645 14.4784 20.1812 14.574C20.0396 14.6218 19.9153 14.6608 19.8174 14.688C19.7685 14.7016 19.7253 14.7125 19.6892 14.72C19.6552 14.7272 19.6212 14.7328 19.5937 14.7328C19.5362 14.7328 19.3668 14.716 19.1249 14.6885C18.8792 14.6607 18.5505 14.6208 18.1674 14.5728C17.4012 14.4768 16.4166 14.3482 15.4414 14.2175C14.4662 14.0868 13.5003 13.954 12.7716 13.8498C12.4073 13.7977 12.1019 13.7527 11.8843 13.7186C11.7755 13.7016 11.6881 13.6872 11.6259 13.676C11.5949 13.6704 11.5692 13.6654 11.55 13.6612C11.5405 13.6591 11.5314 13.6569 11.5234 13.6546L11.5228 13.6544C11.5191 13.6534 11.5069 13.65 11.4943 13.6433C11.458 13.6246 11.433 13.5941 11.4164 13.5679C11.3985 13.5399 11.3843 13.5073 11.3731 13.4738C11.3508 13.4068 11.3375 13.3258 11.3375 13.2453C11.3375 13.1178 11.2934 12.866 11.2471 12.6804C11.2141 12.5639 11.1541 12.4586 10.7879 12.1747C10.4208 11.8901 9.7655 11.4399 8.56903 10.6282C7.84685 10.1405 7.19018 9.69019 6.7139 9.35821C6.47583 9.19226 6.28249 9.05563 6.14847 8.95858C6.08158 8.91014 6.02879 8.87107 5.9924 8.84293C5.97441 8.82903 5.95922 8.81685 5.94801 8.80712C5.94268 8.80248 5.93636 8.79677 5.93069 8.79076C5.92805 8.78796 5.92336 8.78282 5.9187 8.7761C5.91636 8.77273 5.91262 8.76696 5.90915 8.75932C5.9062 8.75281 5.89999 8.7376 5.89999 8.71719C5.89999 8.70187 5.90343 8.68941 5.90461 8.68521C5.90633 8.67905 5.90837 8.67328 5.91017 8.66854C5.91381 8.65895 5.91853 8.64814 5.9237 8.63697C5.93416 8.61436 5.94899 8.58476 5.96727 8.54968C6.00399 8.47922 6.05671 8.3827 6.12138 8.26746C6.25078 8.0369 6.4293 7.72919 6.62649 7.40053C7.02015 6.73506 7.57309 5.79789 7.85431 5.31981L22.4792 13.6708ZM39.4568 22.882C40.5707 23.0239 41.4746 23.1399 42.1013 23.2216M39.4568 22.882L42.1013 23.2216M42.1013 23.2216C42.4146 23.2625 42.6587 23.2948 42.8252 23.3176M42.1013 23.2216L42.8252 23.3176M42.8252 23.3176C42.9084 23.3289 42.9725 23.3379 43.0163 23.3444M42.8252 23.3176L43.0163 23.3444M43.0163 23.3444C43.0273 23.346 43.0372 23.3475 43.0459 23.3488M43.0163 23.3444L43.0459 23.3488M43.0459 23.3488C43.0543 23.3501 43.0616 23.3513 43.0677 23.3524M43.0459 23.3488L43.0677 23.3524M43.0677 23.3524C43.0737 23.3534 43.0795 23.3544 43.0844 23.3555M43.0677 23.3524L43.0844 23.3555M43.0844 23.3555C43.0867 23.3559 43.0904 23.3567 43.0944 23.3579M43.0844 23.3555L43.0944 23.3579M43.0944 23.3579C43.0962 23.3584 43.1 23.3595 43.1046 23.3613M43.0944 23.3579L43.1046 23.3613M43.1046 23.3613C43.1069 23.3622 43.1124 23.3647 43.1155 23.3663M43.1046 23.3613L43.1155 23.3663M43.1155 23.3663C43.1203 23.369 43.1325 23.3776 43.1395 23.384M43.1155 23.3663L43.1395 23.384M43.1395 23.384C43.1847 23.4293 43.166 23.4838 43.1589 23.4987M43.1395 23.384L43.1589 23.4987M43.1589 23.4987C43.1513 23.5144 43.1414 23.5243 43.1388 23.527M43.1589 23.4987L43.1388 23.527M43.1388 23.527C43.1316 23.5342 43.1243 23.5393 43.1214 23.5414M43.1388 23.527L43.1214 23.5414M43.1214 23.5414C43.114 23.5467 43.1049 23.5522 43.0962 23.5574M43.1214 23.5414L43.0962 23.5574M43.0962 23.5574C43.0778 23.5682 43.0511 23.5829 43.0174 23.6009M43.0962 23.5574L43.0174 23.6009M43.0174 23.6009C42.9497 23.6371 42.8492 23.6891 42.72 23.7548M43.0174 23.6009L42.72 23.7548M42.72 23.7548C42.4614 23.8863 42.0854 24.074 41.62 24.3037M42.72 23.7548L41.62 24.3037M41.62 24.3037C40.6892 24.7633 39.3999 25.3915 37.9747 26.076L41.62 24.3037ZM17.5139 40.8969C17.5139 40.8969 17.5139 40.8969 17.5139 40.8969L17.5139 40.8969ZM18.2876 19.1852L18.2331 19.1784L17.0344 16.4047L16.9439 16.4474C16.9439 16.4474 16.9439 16.4474 16.9439 16.4473C16.8455 16.2388 16.7705 16.0769 16.7165 15.9524C16.6631 15.8295 16.6277 15.7373 16.6114 15.67C16.6034 15.6368 16.5979 15.6018 16.6013 15.5686C16.6049 15.5325 16.6201 15.491 16.6596 15.4626C16.6946 15.4374 16.7336 15.434 16.759 15.4343C16.7839 15.4345 16.8098 15.4386 16.8332 15.4431C16.898 15.4496 17.1307 15.4807 17.45 15.5235C17.7397 15.5622 18.1008 15.6106 18.4722 15.6586L18.473 15.6587L19.8816 15.8521L21.4224 15.2524L21.4231 15.2521L22.9787 14.6336L22.99 14.6291L23.002 14.6275L28.8051 13.8306L28.8052 13.8306C30.9615 13.5353 32.4208 13.3292 33.356 13.1828C33.8239 13.1096 34.1591 13.0516 34.3844 13.0051C34.4973 12.9818 34.5806 12.9618 34.6385 12.9447C34.6675 12.9361 34.6884 12.9287 34.7025 12.9227C34.7085 12.9201 34.7124 12.9182 34.7145 12.9171C34.716 12.9152 34.7186 12.9117 34.7223 12.9064C34.7302 12.895 34.7404 12.879 34.753 12.8579C34.7781 12.8159 34.8104 12.7575 34.8493 12.6841C34.927 12.5373 35.029 12.334 35.1483 12.0883C35.3869 11.5972 35.6935 10.9396 36.0119 10.2324C36.331 9.52388 36.6291 8.88766 36.8524 8.43288C36.964 8.2057 37.0573 8.02275 37.1255 7.89844C37.1594 7.83673 37.1882 7.78724 37.2107 7.75357C37.2213 7.73761 37.2335 7.72063 37.2462 7.70742C37.2515 7.70189 37.2638 7.68949 37.2819 7.68055C37.2914 7.67584 37.3089 7.66884 37.3317 7.66943C37.3577 7.6701 37.3829 7.68058 37.402 7.6996L37.407 7.70462L37.4112 7.71031C37.4133 7.71309 37.4152 7.71598 37.4168 7.71852C37.4194 7.72258 37.421 7.72573 37.4212 7.72609L37.4271 7.737L37.4437 7.76977C37.4575 7.79716 37.4769 7.83648 37.5017 7.88695C37.5512 7.98795 37.6226 8.13446 37.7132 8.32142C37.8944 8.69537 38.1532 9.2316 38.4702 9.89022C39.1042 11.2075 39.9714 13.0146 40.9183 14.9928C41.8652 16.971 42.7232 18.7759 43.3409 20.0887C43.6497 20.745 43.8986 21.2786 44.0686 21.6493C44.1535 21.8346 44.219 21.9798 44.2624 22.0794C44.2841 22.129 44.3007 22.1683 44.3115 22.1959C44.3168 22.2094 44.3215 22.222 44.3248 22.2324C44.3262 22.237 44.3285 22.2447 44.33 22.2533C44.3306 22.257 44.3321 22.2662 44.3315 22.2778C44.3312 22.2836 44.3301 22.2944 44.3256 22.307C44.321 22.3197 44.3103 22.3409 44.2867 22.3566L44.2862 22.3558C44.2786 22.3608 44.271 22.3651 44.2669 22.3669C44.2622 22.3686 44.2542 22.3708 44.2508 22.3716C44.2443 22.3729 44.2389 22.3734 44.2366 22.3735C44.2314 22.3739 44.2268 22.3738 44.2243 22.3738C44.2186 22.3737 44.2121 22.3733 44.2058 22.3729C44.1926 22.372 44.1741 22.3704 44.1511 22.3682C44.1049 22.3638 44.0371 22.3567 43.9493 22.3471C43.7735 22.3279 43.5157 22.2984 43.1849 22.2598C42.5232 22.1826 41.5685 22.0686 40.3919 21.9262C38.0386 21.6414 34.7971 21.243 31.2345 20.7977C31.2345 20.7977 31.2345 20.7977 31.2345 20.7977L18.2876 19.1852ZM33.5311 43.0192L33.5314 43.0191L33.5311 43.0192Z" fill="white" stroke="white" stroke-width="0.2"/>
</svg>
