<svg width="26" height="37" viewBox="0 0 26 37" fill="none" xmlns="http://www.w3.org/2000/svg">
<g filter="url(#filter0_d_1_387)">
<path d="M4.00071 7.64037C3.99616 7.74831 4.01359 7.85604 4.05192 7.95694C4.09026 8.05784 4.14868 8.14978 4.2236 8.2271C4.29852 8.30443 4.38836 8.3655 4.48759 8.40657C4.58681 8.44763 4.69333 8.46783 4.8006 8.46591H7.53883C7.99686 8.46591 8.36196 8.08824 8.4217 7.63035C8.72042 5.43783 10.214 3.84024 12.8759 3.84024C15.1528 3.84024 17.2371 4.98663 17.2371 7.74398C17.2371 9.86631 15.9958 10.8422 14.0342 12.3262C11.8005 13.9606 10.0314 15.869 10.1576 18.9672L10.1675 19.6925C10.171 19.9118 10.26 20.1209 10.4152 20.2747C10.5704 20.4285 10.7795 20.5147 10.9973 20.5147H13.6891C13.9091 20.5147 14.1202 20.4267 14.2758 20.27C14.4314 20.1133 14.5188 19.9007 14.5188 19.6791V19.3282C14.5188 16.9285 15.4249 16.2299 17.8711 14.3616C19.8924 12.8142 22 11.0963 22 7.48997C22 2.43984 17.7649 0 13.1281 0C8.92288 0 4.31602 1.97192 4.00071 7.64037ZM9.16849 26.9017C9.16849 28.6832 10.5791 30 12.5207 30C14.5421 30 15.9327 28.6832 15.9327 26.9017C15.9327 25.0568 14.5387 23.76 12.5174 23.76C10.5791 23.76 9.16849 25.0568 9.16849 26.9017Z" fill="white"/>
</g>
<defs>
<filter id="filter0_d_1_387" x="0" y="0" width="26" height="38" filterUnits="userSpaceOnUse" color-interpolation-filters="sRGB">
<feFlood flood-opacity="0" result="BackgroundImageFix"/>
<feColorMatrix in="SourceAlpha" type="matrix" values="0 0 0 0 0 0 0 0 0 0 0 0 0 0 0 0 0 0 127 0" result="hardAlpha"/>
<feOffset dy="4"/>
<feGaussianBlur stdDeviation="2"/>
<feComposite in2="hardAlpha" operator="out"/>
<feColorMatrix type="matrix" values="0 0 0 0 0 0 0 0 0 0 0 0 0 0 0 0 0 0 0.25 0"/>
<feBlend mode="normal" in2="BackgroundImageFix" result="effect1_dropShadow_1_387"/>
<feBlend mode="normal" in="SourceGraphic" in2="effect1_dropShadow_1_387" result="shape"/>
</filter>
</defs>
</svg>
