<svg width="23" height="23" viewBox="0 0 23 23" fill="none" xmlns="http://www.w3.org/2000/svg">
<g clip-path="url(#clip0_1_367)">
<path d="M10.2584 0.470484C7.32633 0.785103 4.66955 2.18778 2.79931 4.41633C1.48403 5.98068 0.6669 7.75915 0.304215 9.83476C0.177493 10.5863 0.164384 12.5134 0.286736 13.2868C0.500851 14.6414 0.968409 16.0004 1.61076 17.1365L1.85109 17.5604L1.23059 19.7802C0.894124 21.0037 0.614463 22.0743 0.610094 22.1617C0.601354 22.3714 0.719336 22.5375 0.911603 22.5899C1.0558 22.6292 1.28303 22.5681 3.34116 21.9345L5.60903 21.2397L5.91491 21.4145C6.92868 22.0088 8.2964 22.4763 9.69034 22.7123C10.4332 22.8346 12.4083 22.8259 13.1643 22.6948C15.6244 22.2666 17.7393 21.161 19.4129 19.4219C21.0428 17.7308 22.0304 15.7776 22.4411 13.4179C22.5242 12.9416 22.5329 12.71 22.5329 11.6263C22.5329 10.2586 22.4892 9.84787 22.2139 8.77292C21.2176 4.92321 18.0802 1.78139 14.2261 0.785103C13.2342 0.53166 12.7666 0.474854 11.5475 0.461744C10.9357 0.453005 10.3545 0.457375 10.2584 0.470484ZM13.61 22.1617C16.4328 22.4151 18.8303 19.4219 20.3218 17.5931C23.6778 10.8812 20.6758 7.08621 21.0472 8.09999C21.5235 9.38905 21.7507 10.9621 21.6502 12.2731C21.5366 13.7413 21.2307 14.8861 20.6146 16.149C18.7924 19.872 14.8204 22.1879 10.7478 21.8995C9.22715 21.7903 7.86817 21.4145 6.65339 20.7721C5.71828 20.274 5.71828 20.274 5.60466 20.3002C5.54349 20.3133 4.65644 20.5842 3.62519 20.8988C2.59831 21.2135 1.75059 21.4625 1.73748 21.4538C1.72874 21.4407 1.95596 20.5886 2.24436 19.5573C2.53276 18.5217 2.7731 17.5997 2.77747 17.5036C2.78184 17.355 2.74251 17.2501 2.5415 16.9137C1.67193 15.4542 19.3255 8.53175 19.2032 6.7795C18.9978 3.89549 5.0337 3.42356 3.91506 5.66085C5.19975 4.37179 1.0995 21.4538 1.73748 21.4538C2.92604 21.1479 12.5132 22.0612 13.61 22.1617Z" fill="white"/>
<path d="M7.21576 5.7126C6.9447 5.76186 6.92588 5.76944 6.73387 5.98167C6.11646 6.66382 5.58563 7.75527 5.44633 8.63828C5.39362 8.9642 5.39362 9.65015 5.44633 9.94575C5.54798 10.5104 5.83033 11.2494 6.24069 12.0074C7.77295 14.8345 10.3571 16.6791 12.8644 17.2211C13.655 17.3916 14.8233 17.3274 15.4746 17.2213C16.5814 17.0394 17.1321 16.7862 17.6253 15.8426C17.7797 15.5508 17.9905 14.9217 18.0583 14.5579C18.1298 14.1562 18.0921 14.1031 17.4898 13.7469C17.2112 13.5801 16.6992 13.2618 16.3453 13.0344C15.4305 12.4394 15.3137 12.3826 14.99 12.3826C14.6286 12.3826 14.5382 12.447 14.1542 12.9662C13.7627 13.4929 13.1829 14.1069 13.0775 14.1069C12.9721 14.1069 12.4412 13.8113 11.9594 13.4892C10.4949 12.5038 9.27132 11.2418 9.05673 10.499C9.02661 10.3891 9.0379 10.3626 9.24496 10.1314C9.58003 9.74868 9.76827 9.45687 9.85109 9.18779C9.94897 8.87325 9.94521 8.67618 9.84356 8.35784C9.74944 8.06224 9.09437 6.73962 8.80072 6.25074C8.5786 5.88313 8.44684 5.75428 8.23978 5.69365C8.05154 5.64438 7.56212 5.65196 7.21576 5.7126ZM8.20589 6.80025C8.51837 7.3384 8.73296 7.75527 8.94755 8.23278C9.1132 8.60038 9.34912 8.34526 9.33406 8.48549C9.31148 8.68634 7.74283 5.57238 7.36635 5.98167C7.21576 6.14463 5.9884 8.61554 5.9771 8.6686C5.90934 8.94146 6.44399 11.8975 6.73387 12.3826C7.38141 13.4588 10.1711 15.8768 11.5829 16.5703C12.1024 16.8242 16.2691 16.9075 16.6117 16.737C16.9279 16.5816 17.2877 14.8523 17.6868 14.3065C17.8374 14.0981 14.99 13.1708 14.9975 13.1632C15.0201 13.1329 15.2159 13.2428 15.7956 13.6218C16.1194 13.834 16.5787 14.1258 16.8159 14.2698C17.0531 14.4139 17.2526 14.5351 17.2564 14.5389C17.2601 14.5427 17.2225 14.6867 17.1735 14.861C16.7255 16.4565 15.502 17.0553 13.3184 16.737C12.1401 16.5664 10.9429 16.0169 9.81344 15.1339C9.37673 14.7928 8.54472 13.9515 8.14189 13.4437C7.29106 12.3674 6.50046 10.9462 6.27081 10.067C6.17669 9.71078 6.15787 9.01726 6.23316 8.6686C6.31599 8.28584 6.46281 7.88791 6.65481 7.51273C6.88446 7.07312 7.23835 6.56529 7.36635 6.50086C7.41906 6.47434 7.58094 6.4516 7.73153 6.4516H8.0026L8.20589 6.80025Z" fill="#4C89E4"/>
</g>
<defs>
<clipPath id="clip0_1_367">
<rect width="22.3729" height="22.3729" fill="white" transform="translate(0.186401 0.44043)"/>
</clipPath>
</defs>
</svg>
