<svg width="26" height="27" viewBox="0 0 26 27" fill="none" xmlns="http://www.w3.org/2000/svg">
<path d="M11.2402 0.070034C8.42531 0.455044 5.79869 1.76408 3.79664 3.78324C2.68439 4.90405 2.02559 5.79384 1.3668 7.10288C0.759338 8.29213 0.374329 9.46427 0.143323 10.799C-0.00212515 11.6717 -0.0192367 12.0652 0.0149864 13.4085C0.066321 15.1367 0.160434 15.7271 0.639558 17.1559C1.37535 19.3719 2.75283 21.4423 4.45543 22.8797C6.6286 24.7192 9.04132 25.7288 11.899 26.0026C14.2261 26.2165 16.81 25.7117 18.9746 24.6251L19.5136 24.3513L22.2258 25.1641C25.1604 26.0539 25.631 26.1309 25.862 25.7972C25.939 25.6946 25.9989 25.4807 25.9989 25.3181C25.9989 25.1641 25.631 23.8209 25.1861 22.3322C24.7412 20.8434 24.3733 19.5857 24.3733 19.5344C24.3733 19.4916 24.5444 19.0981 24.7497 18.6703C25.169 17.8061 25.5711 16.6255 25.8021 15.5474C26.016 14.5207 26.0245 11.4578 25.8021 10.4567C25.4085 8.65147 24.6214 6.82054 23.6375 5.4345C23.3551 5.04094 22.7134 4.29659 22.1915 3.78324C20.3777 1.9523 18.1874 0.771608 15.6464 0.232594C14.6197 0.0186996 12.2669 -0.0754147 11.2402 0.070034ZM14.2005 1.47318C15.6378 1.57585 17.5115 2.20042 18.9061 3.03033C21.1306 4.34792 22.9445 6.50397 23.8343 8.86537C24.9978 11.9711 24.7839 15.4619 23.2525 18.3537C23.0215 18.7901 22.8332 19.2093 22.8332 19.2949C22.8332 19.3719 23.1412 20.4755 23.5091 21.7504C23.8856 23.0166 24.1679 24.0775 24.1508 24.0946C24.1337 24.1118 23.0985 23.838 21.8579 23.4786C20.6173 23.1107 19.4965 22.8198 19.3767 22.8198C19.2655 22.8198 18.7521 23.0252 18.2388 23.2818C17.2378 23.7781 16.425 24.0775 15.3469 24.3256C14.7994 24.454 14.3202 24.4882 12.9513 24.4882C11.3514 24.4882 11.1803 24.4711 10.3076 24.2486C7.33017 23.4701 4.95167 21.8017 3.34318 19.3547C-0.678031 13.2801 1.83737 5.09227 8.58787 2.27742C9.94824 1.71274 12.1214 1.30206 13.2508 1.39618C13.4133 1.41329 13.8411 1.44751 14.2005 1.47318Z" fill="#151515"/>
</svg>
