<svg width="31" height="26" viewBox="0 0 31 26" fill="none" xmlns="http://www.w3.org/2000/svg">
<path d="M15.1173 1.18268C2.47046 2.21063 1.41256 2.30871 1.15633 2.4357C0.748279 2.64049 0.507127 2.96633 0.382993 3.47568C0.224523 4.12591 0.401263 4.65692 0.898005 5.0363C1.00608 5.1143 3.63113 6.62086 6.7329 8.37564L12.3667 11.5684L12.626 17.9231C12.7717 21.4258 12.904 24.4144 12.9216 24.5794C13.0042 25.2597 13.4048 25.7017 14.0972 25.8705C14.6098 25.9954 15.0121 25.9327 15.383 25.6672C15.6157 25.4943 16.1821 24.6163 22.9389 13.9096C29.6244 3.3061 30.243 2.30876 30.3222 1.98364C30.5309 1.12751 30.0517 0.367805 29.178 0.160604C28.8222 0.0796455 27.8947 0.140614 15.1173 1.18268ZM20.0446 5.99425C16.2652 8.27632 13.1371 10.1373 13.099 10.128C13.0444 10.1148 3.72822 4.84777 2.35488 4.05958L2.00638 3.8541L14.4343 2.84742C21.2704 2.29192 26.8745 1.83798 26.8908 1.84197C26.9085 1.84054 23.8241 3.71219 20.0446 5.99425ZM21.1282 13.7783L14.5086 24.2773L14.4866 23.8701C14.4189 22.6309 13.9865 11.6532 13.9997 11.599C14.0156 11.534 27.7135 3.23072 27.7396 3.26579C27.7424 3.27795 24.7703 8.00701 21.1282 13.7783Z" fill="#060606"/>
</svg>
