<svg width="29" height="29" viewBox="0 0 29 29" fill="none" xmlns="http://www.w3.org/2000/svg">
<g clip-path="url(#clip0_138_932)">
<g clip-path="url(#clip1_138_932)">
<path d="M18.4571 6.17708C18.4058 6.12726 18.3438 6.08756 18.275 6.06042C18.2062 6.03329 18.1321 6.01929 18.0572 6.01929C17.9823 6.01929 17.9081 6.03329 17.8393 6.06042C17.7706 6.08756 17.7086 6.12726 17.6572 6.17708C17.1026 6.74439 4.16022 20.153 12.3246 26.8975C13.9027 28.1822 15.943 28.8921 18.0572 28.8921C20.1713 28.8921 22.2117 28.1822 23.7898 26.8975C31.9541 20.153 19.0117 6.74439 18.4571 6.17708ZM23.0806 26.1768C21.6981 27.3013 19.9113 27.9226 18.0599 27.9226C16.2085 27.9226 14.4216 27.3013 13.0391 26.1768C6.41861 20.7008 15.9481 9.56636 18.0599 7.25084C20.1716 9.56636 29.7064 20.696 23.0806 26.1768Z" fill="#6293DD"/>
<path d="M7.5708 5.36834L7.63288 5.609L7.87355 5.67109L11.5553 6.62082L7.87355 7.57056L7.63288 7.63264L7.5708 7.8733L6.62107 11.5551L5.67133 7.8733L5.60925 7.63264L5.36859 7.57056L1.68684 6.62082L5.36859 5.67109L5.60925 5.609L5.67133 5.36834L6.62107 1.68659L7.5708 5.36834Z" stroke="#6293DD" stroke-width="0.842681"/>
</g>
</g>
<defs>
<clipPath id="clip0_138_932">
<rect width="29" height="29" fill="white"/>
</clipPath>
<clipPath id="clip1_138_932">
<rect width="26.4843" height="31.2996" fill="white" transform="translate(0 -0.000244141)"/>
</clipPath>
</defs>
</svg>
