<svg width="38" height="37" viewBox="0 0 38 37" fill="none" xmlns="http://www.w3.org/2000/svg">
<path d="M17.0909 24.275H20.9091V19.3988H26V15.7988H20.9091V11.075H17.0909V15.7988H12V19.3988H17.0909V24.275ZM19 35C14.9458 34.0375 11.5987 31.8441 8.9585 28.4198C6.31833 24.9955 4.99883 21.1939 5 17.015V6.95L19 2L33 6.95V17.015C33 21.195 31.6799 24.9972 29.0397 28.4215C26.3996 31.8458 23.053 34.0386 19 35ZM19 33.35C22.0333 32.4425 25.947 30.05 27.75 27.575C29.7333 24.8525 31.25 20.3425 31.25 17.015V7.775L19 3.65L6.75 7.775V17.015C6.75 20.3425 8.26667 24.8525 10.25 27.575C12 30.05 15.9667 32.4425 19 33.35Z" fill="#6293DD"/>
</svg>
