<svg width="26" height="25" viewBox="0 0 26 25" fill="none" xmlns="http://www.w3.org/2000/svg">
<path d="M24.9226 7.78093L18.1258 0.984053C18.0416 0.899793 17.9416 0.832949 17.8316 0.787342C17.7216 0.741736 17.6037 0.718262 17.4846 0.718262C17.3655 0.718262 17.2476 0.741736 17.1375 0.787342C17.0275 0.832949 16.9276 0.899793 16.8434 0.984053L2.20408 15.6234C1.25288 16.5746 0.718506 17.8647 0.718506 19.2099C0.718506 20.5551 1.25288 21.8452 2.20408 22.7964C3.15527 23.7476 4.44537 24.2819 5.79056 24.2819C7.13575 24.2819 8.42585 23.7476 9.37705 22.7964L22.0521 10.1213L24.5681 9.28304C24.7147 9.23426 24.8465 9.14878 24.9508 9.03474C25.0551 8.92069 25.1285 8.78187 25.164 8.63145C25.1996 8.48104 25.196 8.32403 25.1538 8.17537C25.1115 8.0267 25.032 7.89131 24.9226 7.78206V7.78093ZM21.2761 8.46855C21.1425 8.5129 21.0211 8.58776 20.9215 8.68718L16.439 13.1697C15.4795 13.4982 13.9751 13.6228 12.0131 12.6033C10.8123 11.9757 9.72708 11.6971 8.77779 11.6144L17.4846 2.90644L22.6038 8.02562L21.2761 8.46855Z" fill="#6293DD"/>
</svg>
