<svg width="35" height="35" viewBox="0 0 35 35" fill="none" xmlns="http://www.w3.org/2000/svg">
<g clip-path="url(#clip0_138_1046)">
<path d="M14.8965 0.665154L14.8964 0.665119C14.9715 0.626518 15.0036 0.618095 15.0368 0.61277C15.0868 0.604729 15.1673 0.60054 15.3516 0.606838C15.5434 0.615177 15.616 0.625931 15.6624 0.640728C15.6854 0.648064 15.7207 0.660915 15.7931 0.734951C15.9866 0.932713 16.2463 1.34707 16.83 2.33124C17.1521 2.88166 18.1172 4.50528 19.3177 6.52507C20.0604 7.77461 20.8932 9.17578 21.7197 10.5683L21.72 10.5687C23.5446 13.637 24.7184 15.6278 25.4358 16.8796C25.7204 17.3763 25.9307 17.7522 26.0803 18.0308C25.9934 18.0431 25.906 18.0562 25.8224 18.0693C22.8727 18.5068 20.3252 20.3927 18.987 23.1179C18.2917 24.5294 17.9862 25.8155 17.9932 27.3244M14.8965 0.665154L18.597 27.3216M14.8965 0.665154L14.8903 0.668221C14.8348 0.69598 14.7079 0.805031 14.6521 0.883476M14.8965 0.665154L14.6521 0.883476M17.9932 27.3244L18.597 27.3216M17.9932 27.3244C17.9932 27.3243 17.9932 27.3241 17.9932 27.3239L18.597 27.3216M17.9932 27.3244C18.0002 29.1462 18.4865 30.7395 19.4795 32.2373M18.597 27.3216C18.6035 29.0409 19.0629 30.5305 20.0078 31.9414C20.0232 31.9635 20.0384 31.9854 20.0532 32.007C20.0383 32.0139 20.0159 32.0238 19.9851 32.037C19.9149 32.0669 19.82 32.1054 19.71 32.1485C19.7008 32.1521 19.6916 32.1557 19.6823 32.1594C19.6606 32.1678 19.6383 32.1765 19.6156 32.1852C19.5713 32.2024 19.5257 32.2198 19.4795 32.2373M19.4795 32.2373C19.4883 32.2507 19.4972 32.264 19.5062 32.2773L19.5121 32.2862L19.5122 32.2861C19.6139 32.4324 19.7039 32.5667 19.7675 32.6644C19.7908 32.7002 19.8096 32.7296 19.8237 32.7521C19.5196 32.8694 19.1554 33.002 18.9054 33.0832C17.7045 33.4769 17.1336 33.5491 15.4603 33.5491C14.1019 33.5491 13.8394 33.5359 13.2291 33.4047M19.4795 32.2373C19.212 32.3386 18.922 32.443 18.7189 32.5089L18.7173 32.5094C17.5951 32.8774 17.0919 32.9453 15.4603 32.9453C14.1033 32.9453 13.8977 32.9309 13.3565 32.8145M13.3565 32.8145C13.3567 32.8146 13.3569 32.8146 13.357 32.8146L13.2291 33.4047M13.3565 32.8145C13.3564 32.8145 13.3562 32.8145 13.3561 32.8144L13.2291 33.4047M13.3565 32.8145C8.80062 31.8269 5.31717 28.3567 4.36364 23.8819L4.36359 23.8817C4.25222 23.36 4.22597 23.0951 4.22597 21.9407V21.9373H4.22596C4.21947 20.7687 4.23956 20.5176 4.35764 19.9508L4.35846 19.9469L4.35845 19.9469C4.53231 19.0838 4.9094 17.9734 5.27779 17.2366C5.43165 16.9289 7.69524 12.9583 9.97973 8.97317C11.1173 6.98885 12.2538 5.01156 13.1247 3.5031C13.5602 2.74877 13.929 2.11225 14.1981 1.6509C14.3327 1.42009 14.4419 1.23404 14.5218 1.09933C14.5618 1.03186 14.5938 0.978439 14.6177 0.939224C14.6404 0.901745 14.6505 0.886044 14.6521 0.883476M13.2291 33.4047C8.44535 32.3679 4.77713 28.7194 3.77312 24.0077L14.65 0.886398C14.6507 0.885429 14.6514 0.884457 14.6521 0.883476M20.3819 32.5123C20.3819 32.5001 20.2414 32.2801 20.0541 32.0082C20.0521 32.0095 20.05 32.0108 20.0478 32.0122L20.0477 32.0122C20.0403 32.0169 20.0097 32.0363 19.9742 32.0684C19.9569 32.0841 19.9207 32.1184 19.8847 32.1704C19.8551 32.2132 19.7781 32.3349 19.7781 32.5123C19.7781 32.5816 19.7903 32.6348 19.7955 32.6561C19.8021 32.6825 19.8091 32.7032 19.8134 32.7152C19.8186 32.7296 19.8237 32.7418 19.8275 32.7506C20.1361 32.6316 20.3819 32.5288 20.3819 32.5123Z" stroke="#4C89E4" stroke-width="1.20755"/>
<path d="M26.0307 21.6498L26.0313 21.6497C27.1432 21.4165 28.454 21.5294 29.3867 21.9234L29.3875 21.9237C30.8871 22.5545 32.0738 23.8171 32.5808 25.2965C32.8509 26.0891 32.9259 26.6101 32.8836 27.4868L32.8834 27.4909C32.8474 28.3622 32.7028 28.9364 32.3404 29.6791L32.3394 29.6811C31.304 31.8232 28.9593 33.1305 26.7227 32.8553L26.7216 32.8552C24.1798 32.5473 22.4492 31.1191 21.7746 28.8533L26.0307 21.6498ZM26.0307 21.6498C24.7667 21.9134 23.823 22.4484 22.985 23.3513M26.0307 21.6498L22.985 23.3513M22.985 23.3513C22.3476 24.0477 21.8908 24.9444 21.6822 25.9514C21.5102 26.7878 21.556 28.1167 21.7746 28.8532L22.985 23.3513Z" stroke="#4C89E4" stroke-width="1.20755" stroke-linecap="round"/>
</g>
<defs>
<clipPath id="clip0_138_1046">
<rect width="35" height="35" fill="white"/>
</clipPath>
</defs>
</svg>
