<svg width="29" height="29" viewBox="0 0 29 29" fill="none" xmlns="http://www.w3.org/2000/svg">
<g clip-path="url(#clip0_139_1081)">
<path d="M14.5403 27.0738C14.3266 27.0738 14.1218 26.9889 13.9707 26.8379C13.8196 26.6868 13.7347 26.4819 13.7347 26.2682V2.7138C13.7079 2.59583 13.7079 2.47332 13.7348 2.35536C13.7618 2.2374 13.815 2.12703 13.8904 2.03245C13.9659 1.93786 14.0617 1.86148 14.1707 1.80899C14.2797 1.7565 14.3992 1.72925 14.5202 1.72925C14.6412 1.72925 14.7606 1.7565 14.8696 1.80899C14.9786 1.86148 15.0744 1.93786 15.1499 2.03245C15.2253 2.12703 15.2785 2.2374 15.3055 2.35536C15.3324 2.47332 15.3325 2.59583 15.3056 2.7138V26.2844C15.3017 26.4884 15.2206 26.6834 15.0786 26.8299C14.9365 26.9765 14.7441 27.0636 14.5403 27.0738Z" fill="#6293DD"/>
<path d="M14.5483 8.11213L11.6967 5.26852C11.5466 5.11759 11.4624 4.91342 11.4624 4.7006C11.4624 4.48779 11.5466 4.28362 11.6967 4.13269C11.8476 3.98265 12.0518 3.89844 12.2646 3.89844C12.4774 3.89844 12.6816 3.98265 12.8325 4.13269L14.5483 5.84047L16.2561 4.13269C16.407 3.98265 16.6112 3.89844 16.824 3.89844C17.0368 3.89844 17.241 3.98265 17.3919 4.13269C17.542 4.28362 17.6262 4.48779 17.6262 4.7006C17.6262 4.91342 17.542 5.11759 17.3919 5.26852L14.5483 8.11213Z" fill="#6293DD"/>
<path d="M16.7957 25.1086C16.5844 25.1077 16.3819 25.0238 16.2318 24.875L14.4999 23.1672L12.8082 24.875C12.6573 25.025 12.4531 25.1092 12.2403 25.1092C12.0275 25.1092 11.8233 25.025 11.6724 24.875C11.5969 24.8001 11.5369 24.711 11.496 24.6128C11.4551 24.5146 11.4341 24.4093 11.4341 24.303C11.4341 24.1967 11.4551 24.0914 11.496 23.9932C11.5369 23.895 11.5969 23.8059 11.6724 23.7311L14.4999 20.8875L17.3515 23.7311C17.427 23.8059 17.487 23.895 17.5279 23.9932C17.5688 24.0914 17.5898 24.1967 17.5898 24.303C17.5898 24.4093 17.5688 24.5146 17.5279 24.6128C17.487 24.711 17.427 24.8001 17.3515 24.875C17.2035 25.0218 17.0042 25.1056 16.7957 25.1086Z" fill="#6293DD"/>
<path d="M24.9078 21.3465C24.7667 21.3475 24.6278 21.3114 24.505 21.2418L3.56057 9.15845C3.37686 9.04947 3.24396 8.87198 3.19109 8.66502C3.13821 8.45807 3.1697 8.23858 3.27863 8.05484C3.33193 7.9632 3.40279 7.88299 3.48715 7.81879C3.57151 7.7546 3.66771 7.70769 3.77024 7.68075C3.87276 7.6538 3.9796 7.64737 4.08462 7.6618C4.18964 7.67623 4.29078 7.71124 4.38224 7.76484L25.3267 19.8482C25.4819 19.9361 25.6035 20.0731 25.6724 20.2376C25.7414 20.4021 25.7538 20.5848 25.7078 20.7571C25.6617 20.9294 25.5597 21.0816 25.4179 21.1897C25.276 21.2978 25.1023 21.3558 24.9239 21.3546L24.9078 21.3465Z" fill="#6293DD"/>
<path d="M4.83332 12.3811C4.61967 12.4089 4.40374 12.3507 4.23303 12.2192C4.06232 12.0878 3.95082 11.894 3.92304 11.6803C3.89527 11.4667 3.9535 11.2507 4.08493 11.08C4.21637 10.9093 4.41023 10.7978 4.62387 10.77L6.95999 10.1417L6.31554 7.8378C6.28385 7.73444 6.2733 7.62576 6.2845 7.51823C6.2957 7.4107 6.32843 7.30652 6.38075 7.21191C6.43306 7.1173 6.50388 7.03418 6.58899 6.96752C6.6741 6.90086 6.77176 6.85201 6.87615 6.82388C6.98054 6.79575 7.08952 6.78893 7.1966 6.80381C7.30369 6.81869 7.40668 6.85498 7.49944 6.9105C7.59221 6.96603 7.67284 7.03965 7.73655 7.127C7.80026 7.21435 7.84573 7.31362 7.87026 7.41892L8.91749 11.2775L5.02665 12.3489C4.96417 12.3692 4.89901 12.3801 4.83332 12.3811Z" fill="#6293DD"/>
<path d="M21.7903 22.1845C21.6073 22.1903 21.4279 22.1336 21.2815 22.0238C21.1351 21.914 21.0304 21.7576 20.9847 21.5804L19.9778 17.7218L23.8606 16.6745C23.9639 16.6429 24.0726 16.6323 24.1801 16.6435C24.2877 16.6547 24.3918 16.6874 24.4865 16.7397C24.5811 16.7921 24.6642 16.8629 24.7308 16.948C24.7975 17.0331 24.8464 17.1308 24.8745 17.2351C24.9026 17.3395 24.9094 17.4485 24.8946 17.5556C24.8797 17.6627 24.8434 17.7657 24.7879 17.8584C24.7323 17.9512 24.6587 18.0318 24.5714 18.0955C24.484 18.1593 24.3847 18.2047 24.2795 18.2293L21.9433 18.8576L22.5717 21.1937C22.6257 21.3999 22.5959 21.619 22.4887 21.8032C22.3815 21.9874 22.2057 22.1216 21.9997 22.1765C21.9309 22.1914 21.86 22.1941 21.7903 22.1845Z" fill="#6293DD"/>
<path d="M3.9794 21.3474C3.80104 21.3487 3.6273 21.2907 3.48544 21.1825C3.34359 21.0744 3.24162 20.9223 3.19555 20.75C3.14948 20.5776 3.1619 20.3949 3.23086 20.2304C3.29983 20.0659 3.42144 19.929 3.57662 19.841L24.5211 7.75769C24.7051 7.65199 24.9233 7.62316 25.1285 7.67746C25.3336 7.73176 25.509 7.8648 25.6166 8.04769C25.6702 8.13915 25.7052 8.24029 25.7197 8.34531C25.7341 8.45033 25.7277 8.55717 25.7007 8.65969C25.6738 8.76222 25.6269 8.85842 25.5627 8.94278C25.4985 9.02714 25.4183 9.098 25.3266 9.1513L4.38218 21.2346C4.26019 21.307 4.12125 21.3459 3.9794 21.3474Z" fill="#6293DD"/>
<path d="M7.09685 22.1841C7.02757 22.1963 6.95669 22.1963 6.88741 22.1841C6.68146 22.1293 6.50563 21.9951 6.39843 21.8109C6.29124 21.6267 6.2614 21.4075 6.31546 21.2013L6.9438 18.8652L4.60768 18.2369C4.50143 18.2109 4.40158 18.1636 4.31422 18.0978C4.22686 18.0319 4.15381 17.949 4.09955 17.854C4.04528 17.7591 4.01092 17.654 3.99856 17.5454C3.98621 17.4367 3.99612 17.3266 4.02768 17.2219C4.05479 17.119 4.10199 17.0226 4.16656 16.9381C4.23114 16.8535 4.31182 16.7826 4.40394 16.7295C4.49605 16.6763 4.59779 16.6419 4.70327 16.6282C4.80876 16.6146 4.9159 16.622 5.01852 16.6499L8.91741 17.7213L7.87019 21.6041C7.82138 21.7714 7.71962 21.9184 7.58018 22.023C7.44075 22.1276 7.27115 22.1841 7.09685 22.1841Z" fill="#6293DD"/>
<path d="M24.07 12.3815C24.0006 12.3927 23.9299 12.3927 23.8606 12.3815L19.9778 11.2779L21.017 7.38709C21.0379 7.27662 21.0817 7.17175 21.1456 7.07923C21.2095 6.98672 21.292 6.9086 21.3879 6.84991C21.4838 6.79122 21.591 6.75325 21.7024 6.73845C21.8139 6.72365 21.9272 6.73235 22.0351 6.76399C22.143 6.79562 22.243 6.84949 22.3289 6.92213C22.4147 6.99477 22.4843 7.08456 22.5334 7.18575C22.5824 7.28693 22.6097 7.39725 22.6135 7.50962C22.6173 7.62199 22.5976 7.73392 22.5556 7.8382L21.9272 10.1663L24.2633 10.7946C24.477 10.8224 24.6708 10.9339 24.8023 11.1046C24.9337 11.2753 24.9919 11.4912 24.9642 11.7049C24.9364 11.9185 24.8249 12.1124 24.6542 12.2438C24.4835 12.3752 24.2675 12.4335 24.0539 12.4057L24.07 12.3815Z" fill="#6293DD"/>
</g>
<defs>
<clipPath id="clip0_139_1081">
<rect width="29" height="29" fill="white"/>
</clipPath>
</defs>
</svg>
