<svg width="45" height="42" viewBox="0 0 45 42" fill="none" xmlns="http://www.w3.org/2000/svg">
<path d="M6.56562 0.585155C6.03124 1.30703 3.49999 5.73203 3.49999 5.94765C3.49999 6.06953 3.56562 6.23828 3.63124 6.31328C3.70624 6.38828 4.99062 7.2789 6.48124 8.28203L9.19999 10.1195L9.26562 10.7383C9.36874 11.7227 9.31249 11.6945 11.7969 12.0133C12.9875 12.1633 14 12.3039 14.0469 12.3227C14.1687 12.3602 16.0062 16.2133 15.9406 16.2789C15.9125 16.307 12.6875 17.4227 8.77812 18.7539C4.86874 20.0852 1.55937 21.2195 1.40937 21.2758C1.26874 21.332 1.10937 21.482 1.06249 21.6227C0.996868 21.782 0.978118 24.3977 0.987493 28.982C1.01562 35.1508 1.03437 36.107 1.15624 36.2289C1.24999 36.3227 6.12499 37.2227 16.4469 39.0508C24.7719 40.5227 31.7187 41.7227 31.8687 41.7227C32.1875 41.7227 44.4875 35.8258 44.7969 35.5258C44.9844 35.3477 44.9844 35.2164 44.9844 27.5852V19.832L40.8875 11.3008C38.6375 6.6039 36.7156 2.72265 36.6219 2.65703C36.4625 2.5539 8.36562 0.285156 7.23124 0.285156C6.84687 0.285156 6.76249 0.322655 6.56562 0.585155ZM19.3906 2.45078C25.3719 2.91015 31.4094 3.38828 32.8062 3.50078L35.3375 3.70703L34.1562 6.33203C33.5 7.77578 32.9094 8.9664 32.8344 8.98515C32.7594 8.99453 30.1719 9.36015 27.0781 9.7914L21.4531 10.5695L20.1406 11.1039C19.4281 11.3945 18.725 11.6289 18.5937 11.6289C18.1906 11.6289 10.6437 10.6164 10.5406 10.5508C10.4844 10.5227 10.4375 10.382 10.4375 10.2414C10.4375 10.1008 10.3906 9.83828 10.3437 9.65078C10.2594 9.35078 10.0156 9.16328 7.62499 7.5414C6.18124 6.56641 4.99999 5.74141 4.99999 5.71328C4.99999 5.67578 5.31874 5.1039 5.71249 4.44765C6.10624 3.78203 6.65937 2.84453 6.94062 2.36641L7.45624 1.48515L7.99062 1.5414C8.28124 1.56953 13.4094 1.98203 19.3906 2.45078ZM39.8281 12.032C41.7219 15.9883 43.2594 19.2508 43.2312 19.2695C43.2125 19.2883 37.3719 18.5852 30.2469 17.6945L17.3 16.082L16.8781 15.1914C16.6531 14.7039 16.2687 13.8977 16.0344 13.4008C15.6406 12.5664 15.6312 12.5008 15.8187 12.5383C15.9219 12.5477 16.6625 12.6508 17.4594 12.7539L18.8937 12.9508L20.4594 12.3414L22.0156 11.7227L27.8187 10.9258C32.1312 10.3352 33.6594 10.1008 33.7812 9.98828C33.875 9.9039 34.4656 8.68516 35.1031 7.26953C35.7406 5.8539 36.2938 4.7289 36.3312 4.7664C36.3594 4.8039 37.9344 8.07578 39.8281 12.032ZM29.7781 18.8852C36.5187 19.7289 42.05 20.432 42.0687 20.4508C42.0875 20.4695 39.7812 21.6133 36.9312 22.982L31.7656 25.4758L18.65 23.6289C11.4312 22.607 5.25312 21.7352 4.91562 21.6883L4.29687 21.6133L7.29687 20.582C8.94687 20.0195 11.7969 19.0445 13.625 18.4258C15.875 17.6477 17.0469 17.2914 17.2344 17.3195C17.3937 17.3383 23.0281 18.0414 29.7781 18.8852ZM43.7187 27.9133V34.7383L38.1875 37.4102C35.1406 38.882 32.6094 40.1008 32.5625 40.1102C32.4969 40.1383 32.4781 37.7383 32.4875 33.332L32.5156 26.5164L38.0938 23.8164C41.1594 22.3258 43.6812 21.107 43.7 21.107C43.7094 21.0977 43.7187 24.1633 43.7187 27.9133ZM16.8031 24.6133C24.6687 25.7195 31.1375 26.6289 31.175 26.6289C31.2125 26.6289 31.25 29.732 31.25 33.5195V40.4008L30.9969 40.3539C30.8469 40.3258 24.3406 39.1727 16.5312 37.7945L2.32812 35.2914L2.29999 28.9445C2.28124 23.9008 2.29999 22.5977 2.39374 22.5977C2.45937 22.5977 8.94687 23.507 16.8031 24.6133Z" fill="white"/>
</svg>
