<svg width="21" height="42" viewBox="0 0 21 42" fill="none" xmlns="http://www.w3.org/2000/svg">
<path d="M8.08117 0.811596C7.53269 0.965115 6.72955 1.47986 6.37696 1.89526C6.22025 2.07587 5.98519 2.44613 5.83827 2.73511L5.57383 3.24985L5.54444 6.22994L5.51506 9.21906L5.05473 9.36355C4.43769 9.57125 3.86962 10.0318 3.51702 10.6188L3.22319 11.1064L3.19381 13.1925L3.16443 15.2876L2.76286 15.3418C1.88137 15.4772 0.990093 16.1094 0.559144 16.9131L0.284904 17.4278L0.255521 27.3524C0.226138 38.153 0.216344 37.7647 0.774619 38.8032C1.33289 39.8327 2.3613 40.6184 3.5562 40.9525C4.19283 41.1331 4.42789 41.1421 10.8627 41.115L17.5229 41.0879L18.2868 40.7448C19.6286 40.1397 20.5983 39.0109 20.8921 37.7195C20.9705 37.3854 20.9998 34.2428 20.9998 27.506C20.9998 16.7686 21.0292 17.2472 20.3828 16.4616C19.991 15.983 19.2565 15.5134 18.6884 15.3869L18.277 15.2876L18.2281 13.337C18.2085 12.1991 18.1399 11.2329 18.0714 11.0432C17.8069 10.2847 16.9058 9.50804 16.0341 9.30033L15.564 9.18293L15.5836 8.50564C15.6032 7.7561 15.7893 7.31361 16.2594 6.87111C16.612 6.55504 16.9352 6.40152 18.3652 5.88678C20.0498 5.28173 20.2653 5.16433 20.5787 4.67668C20.8333 4.27031 20.8529 4.18 20.8529 3.15955C20.8529 1.88623 20.804 1.68756 20.3926 1.26313C19.8147 0.649044 20.1086 0.676136 14.0263 0.685169C9.63846 0.685169 8.42397 0.712261 8.08117 0.811596ZM19.0802 2.26552C19.276 2.44613 19.3054 3.76459 19.1193 3.90005C19.0508 3.95424 18.3554 4.22515 17.5718 4.5051C15.848 5.13724 15.4759 5.32688 14.9372 5.86872C14.232 6.5731 13.85 7.57549 13.85 8.73141V9.16487H10.5199H7.18988V6.53698C7.18988 4.82117 7.22906 3.78265 7.29762 3.55689C7.52289 2.88863 8.17911 2.34679 8.95286 2.2023C9.13895 2.16618 11.4602 2.13909 14.1145 2.13006C18.375 2.12103 18.943 2.13909 19.0802 2.26552ZM15.8089 10.8717C16.4749 11.1968 16.5434 11.4225 16.5728 13.4725L16.6022 15.3057H10.7256H4.83925V13.4634C4.83925 11.7115 4.84905 11.6212 5.06452 11.3232C5.52485 10.691 5.41712 10.7001 10.7158 10.7001C15.1624 10.7001 15.4954 10.7091 15.8089 10.8717ZM18.5513 16.9944C18.7472 17.1027 19.0018 17.3556 19.1193 17.5452C19.3152 17.8703 19.3348 18.0329 19.3348 19.1346V20.3628H10.6179H1.90096V19.1707C1.90096 18.1593 1.93035 17.9245 2.09685 17.6175C2.32212 17.2021 2.66492 16.9312 3.11546 16.8318C3.28196 16.7957 6.74914 16.7686 10.8138 16.7776L18.2085 16.7957L18.5513 16.9944ZM19.3152 29.6823L19.2858 37.4757L19.0116 37.9905C18.6688 38.6407 17.9342 39.2638 17.2486 39.4805C16.7785 39.634 16.2888 39.643 10.5689 39.643H4.39851L3.79126 39.3812C3.08607 39.0832 2.47883 38.5323 2.16541 37.9001C1.94993 37.4757 1.94993 37.4577 1.92055 29.6823L1.90096 21.898H10.6179H19.3348L19.3152 29.6823Z" fill="white"/>
</svg>
