<svg width="52" height="52" viewBox="0 0 52 52" fill="none" xmlns="http://www.w3.org/2000/svg">
<g clip-path="url(#clip0_1_464)">
<path d="M22.7499 4.33337C26.2079 4.33314 29.596 5.30644 32.5266 7.14188C35.4572 8.97731 37.8118 11.6007 39.3211 14.7119C40.8303 17.8231 41.4332 21.2963 41.0607 24.7341C40.6881 28.1719 39.3553 31.4354 37.2146 34.151L45.1273 42.0637C45.5219 42.4723 45.7403 43.0197 45.7354 43.5877C45.7305 44.1558 45.5026 44.6993 45.1009 45.101C44.6992 45.5027 44.1557 45.7306 43.5876 45.7355C43.0196 45.7404 42.4722 45.522 42.0636 45.1274L34.1509 37.2147C31.8444 39.0325 29.1366 40.2723 26.2535 40.8307C23.3703 41.3891 20.3955 41.25 17.5771 40.4248C14.7586 39.5997 12.1784 38.1126 10.0516 36.0874C7.92484 34.0623 6.31319 31.558 5.35113 28.7833C4.38906 26.0086 4.10449 23.0441 4.52114 20.1371C4.93779 17.2301 6.04359 14.4649 7.74628 12.0722C9.44897 9.67944 11.6992 7.72859 14.3092 6.38238C16.9191 5.03616 19.8132 4.33362 22.7499 4.33337ZM22.7499 8.66671C19.0148 8.66671 15.4327 10.1505 12.7915 12.7916C10.1504 15.4328 8.66661 19.0149 8.66661 22.75C8.66661 26.4852 10.1504 30.0673 12.7915 32.7085C15.4327 35.3496 19.0148 36.8334 22.7499 36.8334C26.4851 36.8334 30.0672 35.3496 32.7084 32.7085C35.3495 30.0673 36.8333 26.4852 36.8333 22.75C36.8333 19.0149 35.3495 15.4328 32.7084 12.7916C30.0672 10.1505 26.4851 8.66671 22.7499 8.66671ZM22.7499 10.8334C25.9104 10.8334 28.9415 12.0889 31.1763 14.3237C33.4111 16.5585 34.6666 19.5895 34.6666 22.75C34.6666 25.9105 33.4111 28.9416 31.1763 31.1764C28.9415 33.4112 25.9104 34.6667 22.7499 34.6667C19.5894 34.6667 16.5584 33.4112 14.3236 31.1764C12.0888 28.9416 10.8333 25.9105 10.8333 22.75C10.8333 19.5895 12.0888 16.5585 14.3236 14.3237C16.5584 12.0889 19.5894 10.8334 22.7499 10.8334Z" fill="#6CA8EE"/>
<path d="M22.7501 4.33325C26.208 4.33302 29.5961 5.30632 32.5267 7.14175C35.4573 8.97719 37.812 11.6006 39.3212 14.7118C40.8305 17.823 41.4333 21.2962 41.0608 24.734C40.6882 28.1718 39.3554 31.4353 37.2147 34.1509L45.1274 42.0636C45.5221 42.4722 45.7405 43.0195 45.7355 43.5876C45.7306 44.1557 45.5027 44.6991 45.101 45.1009C44.6993 45.5026 44.1559 45.7304 43.5878 45.7354C43.0197 45.7403 42.4724 45.5219 42.0637 45.1273L34.1511 37.2146C31.8445 39.0323 29.1367 40.2721 26.2536 40.8306C23.3705 41.389 20.3956 41.2498 17.5772 40.4247C14.7588 39.5996 12.1785 38.1124 10.0517 36.0873C7.92496 34.0622 6.31331 31.5578 5.35125 28.7832C4.38918 26.0085 4.10461 23.044 4.52126 20.137C4.93792 17.23 6.04372 14.4648 7.74641 12.0721C9.4491 9.67932 11.6993 7.72847 14.3093 6.38226C16.9193 5.03604 19.8133 4.3335 22.7501 4.33325ZM22.7501 8.66659C19.0149 8.66659 15.4328 10.1504 12.7916 12.7915C10.1505 15.4326 8.66673 19.0148 8.66673 22.7499C8.66673 26.4851 10.1505 30.0672 12.7916 32.7083C15.4328 35.3495 19.0149 36.8333 22.7501 36.8333C26.4852 36.8333 30.0673 35.3495 32.7085 32.7083C35.3496 30.0672 36.8334 26.4851 36.8334 22.7499C36.8334 19.0148 35.3496 15.4326 32.7085 12.7915C30.0673 10.1504 26.4852 8.66659 22.7501 8.66659Z" fill="#6CA8EE"/>
</g>
<defs>
<clipPath id="clip0_1_464">
<rect width="52" height="52" fill="white"/>
</clipPath>
</defs>
</svg>
